<svg width="70" height="70" fill="none" xmlns="http://www.w3.org/2000/svg"><path d="m10.839 5.325 1.569-1.568h48.86l3.406 3.406 1.57 1.569v48.86l-4.326 4.326-4.326 4.325H7.813l-1.569-1.568-2.487-2.488V12.408l7.082-7.082Z" stroke="#F8F9FF" stroke-width="1.838"/><path d="M1 21.216V10.19l7.351-7.351L10.19 1h11.946M69 48.784V59.81l-4.595 4.594L59.811 69H48.784" stroke="#F8F9FF" stroke-width=".919"/><path d="M37.218 18.079a1.838 1.838 0 0 0-2.599 0L22.923 29.775a1.838 1.838 0 0 0 2.6 2.599l10.396-10.397 10.396 10.397a1.838 1.838 0 0 0 2.6-2.6L37.217 18.08Zm.539 34.38V19.38H34.08v33.08h3.676Z" fill="#fff"/></svg>