<svg width="26" height="26" fill="none" xmlns="http://www.w3.org/2000/svg"><path d="M1 11.667c0-5.028 0-7.543 1.563-9.104C4.124 1 6.639 1 11.667 1h2.666c5.028 0 7.543 0 9.104 1.563C25 4.124 25 6.639 25 11.667v2.666c0 5.028 0 7.543-1.563 9.104C21.876 25 19.361 25 14.333 25h-2.666c-5.028 0-7.543 0-9.104-1.563C1 21.876 1 19.361 1 14.333v-2.666Z" stroke="#F8F9FF" stroke-width="1.649"/><path d="M19 9a2 2 0 1 0 0-4 2 2 0 0 0 0 4Z" fill="#F8F9FF"/><path d="M13 17.667a4.667 4.667 0 1 0 0-9.334 4.667 4.667 0 0 0 0 9.334Z" stroke="#F8F9FF" stroke-width="1.649"/></svg>