<svg width="26" height="18" fill="none" xmlns="http://www.w3.org/2000/svg"><path d="M10.232 12.857 16.869 9l-6.637-3.857v7.714ZM25.016 2.79c.167.604.282 1.414.358 2.443.09 1.028.128 1.916.128 2.687L25.58 9c0 2.816-.205 4.886-.563 6.21-.32 1.157-1.061 1.903-2.212 2.224-.601.167-1.701.283-3.39.36-1.662.09-3.184.129-4.591.129L12.789 18c-5.358 0-8.696-.206-10.014-.566-1.15-.321-1.893-1.067-2.212-2.224-.167-.604-.282-1.414-.358-2.443a31.095 31.095 0 0 1-.128-2.687L0 9c0-2.816.205-4.886.563-6.21C.883 1.633 1.624.887 2.775.566c.601-.167 1.701-.283 3.39-.36a84.793 84.793 0 0 1 4.59-.129L12.79 0c5.36 0 8.697.206 10.015.566 1.15.321 1.893 1.067 2.212 2.224Z" fill="#F8F9FF"/></svg>